<svg width="33" height="32" viewBox="0 0 33 32" fill="none" xmlns="http://www.w3.org/2000/svg">
<path d="M10.9001 2.66669H22.1001C26.3667 2.66669 29.8334 6.13335 29.8334 10.4V21.6C29.8334 23.651 29.0187 25.618 27.5684 27.0683C26.1181 28.5186 24.1511 29.3334 22.1001 29.3334H10.9001C6.63341 29.3334 3.16675 25.8667 3.16675 21.6V10.4C3.16675 8.34901 3.98151 6.38201 5.43179 4.93173C6.88207 3.48145 8.84907 2.66669 10.9001 2.66669ZM10.6334 5.33335C9.36037 5.33335 8.13948 5.83907 7.2393 6.73924C6.33913 7.63942 5.83341 8.86031 5.83341 10.1334V21.8667C5.83341 24.52 7.98008 26.6667 10.6334 26.6667H22.3667C23.6398 26.6667 24.8607 26.161 25.7609 25.2608C26.661 24.3606 27.1667 23.1397 27.1667 21.8667V10.1334C27.1667 7.48002 25.0201 5.33335 22.3667 5.33335H10.6334ZM23.5001 7.33335C23.9421 7.33335 24.366 7.50895 24.6786 7.82151C24.9912 8.13407 25.1667 8.55799 25.1667 9.00002C25.1667 9.44205 24.9912 9.86597 24.6786 10.1785C24.366 10.4911 23.9421 10.6667 23.5001 10.6667C23.0581 10.6667 22.6341 10.4911 22.3216 10.1785C22.009 9.86597 21.8334 9.44205 21.8334 9.00002C21.8334 8.55799 22.009 8.13407 22.3216 7.82151C22.6341 7.50895 23.0581 7.33335 23.5001 7.33335ZM16.5001 9.33335C18.2682 9.33335 19.9639 10.0357 21.2141 11.286C22.4644 12.5362 23.1667 14.2319 23.1667 16C23.1667 17.7681 22.4644 19.4638 21.2141 20.7141C19.9639 21.9643 18.2682 22.6667 16.5001 22.6667C14.732 22.6667 13.0363 21.9643 11.786 20.7141C10.5358 19.4638 9.83341 17.7681 9.83341 16C9.83341 14.2319 10.5358 12.5362 11.786 11.286C13.0363 10.0357 14.732 9.33335 16.5001 9.33335ZM16.5001 12C15.4392 12 14.4218 12.4214 13.6717 13.1716C12.9215 13.9217 12.5001 14.9392 12.5001 16C12.5001 17.0609 12.9215 18.0783 13.6717 18.8284C14.4218 19.5786 15.4392 20 16.5001 20C17.5609 20 18.5784 19.5786 19.3285 18.8284C20.0787 18.0783 20.5001 17.0609 20.5001 16C20.5001 14.9392 20.0787 13.9217 19.3285 13.1716C18.5784 12.4214 17.5609 12 16.5001 12Z" fill="#3699F4"/>
</svg>
